<svg width="206" height="14" viewBox="0 0 206 14" fill="none" xmlns="http://www.w3.org/2000/svg">
<path fill-rule="evenodd" clip-rule="evenodd" d="M199.045 0.706543L205.683 7.35329L199.045 14L198.098 13.0512L203.788 7.35329L198.098 1.65535L199.045 0.706543Z" fill="white"/>
<path fill-rule="evenodd" clip-rule="evenodd" d="M204.736 8.02395L164.228 8.02395L164.228 6.68213L204.736 6.68213L204.736 8.02395Z" fill="white"/>
<path fill-rule="evenodd" clip-rule="evenodd" d="M6.63807 14L2.308e-05 7.35326L6.63807 0.706515L7.58563 1.65532L1.89516 7.35326L7.58563 13.0512L6.63807 14Z" fill="white"/>
<path fill-rule="evenodd" clip-rule="evenodd" d="M0.94758 6.68259L41.4556 6.6826L41.4556 8.02441L0.94758 8.02441L0.94758 6.68259Z" fill="white"/>
<rect x="125.164" y="2.16479" width="9.56667" height="9.57921" rx="4.78333" fill="white" fill-opacity="0.3"/>
<rect x="98.0583" y="2.16479" width="9.56667" height="9.57921" rx="4.78333" fill="white" fill-opacity="0.3"/>
<rect x="70.9528" y="2.16455" width="9.56667" height="9.57921" rx="4.78333" fill="white"/>
</svg>
